<?xml version="1.0"?>
<svg xmlns="http://www.w3.org/2000/svg" width="500" height="250" version="1.0" id="ezcGraph"><defs/><g id="ezcGraphChart" color-rendering="optimizeQuality" shape-rendering="geometricPrecision" text-rendering="optimizeLegibility"><path d=" M 0.0000,250.0000 L 0.0000,0.0000 L 500.0000,0.0000 L 500.0000,250.0000 L 0.0000,250.0000 z " style="fill: #eeeeec; fill-opacity: 1.00; stroke: none;" id="ezcGraphPolygon_1"/><path d=" M 0.0000,25.0000 L 0.0000,0.0000 L 500.0000,0.0000 L 500.0000,25.0000 L 0.0000,25.0000 z " style="fill: #000000; fill-opacity: 0.00; stroke: none;" id="ezcGraphPolygon_2"/><path d=" M 0.0000,250.0000 L 0.0000,25.0000 L 100.0000,25.0000 L 100.0000,250.0000 L 0.0000,250.0000 z " style="fill: #000000; fill-opacity: 0.00; stroke: none;" id="ezcGraphPolygon_4"/><path d=" M 2.0000,41.0000 L 2.0000,27.0000 L 16.0000,27.0000 L 16.0000,41.0000 L 2.0000,41.0000 z " style="fill: #3465a4; fill-opacity: 1.00; stroke: none;" id="ezcGraphPolygon_5"/><path d=" M 2.0000,59.0000 L 2.0000,45.0000 L 16.0000,45.0000 L 16.0000,59.0000 L 2.0000,59.0000 z " style="fill: #4e9a06; fill-opacity: 1.00; stroke: none;" id="ezcGraphPolygon_7"/><path d=" M 2.0000,77.0000 L 2.0000,63.0000 L 16.0000,63.0000 L 16.0000,77.0000 L 2.0000,77.0000 z " style="fill: #cc0000; fill-opacity: 1.00; stroke: none;" id="ezcGraphPolygon_9"/><path d=" M 2.0000,95.0000 L 2.0000,81.0000 L 16.0000,81.0000 L 16.0000,95.0000 L 2.0000,95.0000 z " style="fill: #edd400; fill-opacity: 1.00; stroke: none;" id="ezcGraphPolygon_11"/><path d=" M 2.0000,113.0000 L 2.0000,99.0000 L 16.0000,99.0000 L 16.0000,113.0000 L 2.0000,113.0000 z " style="fill: #75505b; fill-opacity: 1.00; stroke: none;" id="ezcGraphPolygon_13"/><path d="M 300.00,137.50 L 390.00,137.50 A 90.00,90.00 0 0,1 379.69,179.33 z" style="fill: #3465a4; fill-opacity: 1.00; stroke: none;" id="ezcGraphCircleSector_15"/><path d="M 302.03,138.00 L 389.50,138.00 A 89.50,89.50 0 0,1 379.48,178.65 z" style="fill: none; stroke: #1a3352; stroke-width: 1; stroke-opacity: 1.00; stroke-linecap: round; stroke-linejoin: round;" id="ezcGraphCircleSector_16"/><path d="M 300.00,137.50 L 379.69,179.33 A 90.00,90.00 0 0,1 289.15,226.84 z" style="fill: #4e9a06; fill-opacity: 1.00; stroke: none;" id="ezcGraphCircleSector_17"/><path d="M 300.41,138.28 L 379.02,179.54 A 89.50,89.50 0 0,1 289.71,226.41 z" style="fill: none; stroke: #274d03; stroke-width: 1; stroke-opacity: 1.00; stroke-linecap: round; stroke-linejoin: round;" id="ezcGraphCircleSector_18"/><path d="M 300.00,137.50 L 289.15,226.84 A 90.00,90.00 0 0,1 232.63,197.18 z" style="fill: #cc0000; fill-opacity: 1.00; stroke: none;" id="ezcGraphCircleSector_19"/><path d="M 299.34,138.75 L 288.72,226.29 A 89.50,89.50 0 0,1 233.34,197.22 z" style="fill: none; stroke: #660000; stroke-width: 1; stroke-opacity: 1.00; stroke-linecap: round; stroke-linejoin: round;" id="ezcGraphCircleSector_20"/><path d="M 300.00,137.50 L 232.63,197.18 A 90.00,90.00 0 0,1 248.87,63.43 z" style="fill: #edd400; fill-opacity: 1.00; stroke: none;" id="ezcGraphCircleSector_21"/><path d="M 299.34,137.42 L 232.68,196.48 A 89.50,89.50 0 0,1 248.75,64.13 z" style="fill: none; stroke: #776a00; stroke-width: 1; stroke-opacity: 1.00; stroke-linecap: round; stroke-linejoin: round;" id="ezcGraphCircleSector_22"/><path d="M 300.00,137.50 L 248.87,63.43 A 90.00,90.00 0 0,1 390.00,137.50 z" style="fill: #75505b; fill-opacity: 1.00; stroke: none;" id="ezcGraphCircleSector_23"/><path d="M 300.26,137.00 L 249.57,63.56 A 89.50,89.50 0 0,1 389.50,137.00 z" style="fill: none; stroke: #3b282e; stroke-width: 1; stroke-opacity: 1.00; stroke-linecap: round; stroke-linejoin: round;" id="ezcGraphCircleSector_24"/><path d=" M 233.8194,129.4642 L 194.7843,125.0000" style="fill: none; stroke: #000000; stroke-width: 1; stroke-opacity: 1.00; stroke-linecap: round; stroke-linejoin: round;" id="ezcGraphLine_25"/><ellipse cx="233.8194" cy="129.4642" rx="3.0000" ry="3.0000" style="fill: #000000; fill-opacity: 1.00; stroke: none;" id="ezcGraphCircle_26"/><ellipse cx="194.7843" cy="125.0000" rx="3.0000" ry="3.0000" style="fill: #000000; fill-opacity: 1.00; stroke: none;" id="ezcGraphCircle_27"/><path d=" M 269.0185,196.5304 L 247.4409,226.0000" style="fill: none; stroke: #000000; stroke-width: 1; stroke-opacity: 1.00; stroke-linecap: round; stroke-linejoin: round;" id="ezcGraphLine_29"/><ellipse cx="269.0185" cy="196.5304" rx="3.0000" ry="3.0000" style="fill: #000000; fill-opacity: 1.00; stroke: none;" id="ezcGraphCircle_30"/><ellipse cx="247.4409" cy="226.0000" rx="3.0000" ry="3.0000" style="fill: #000000; fill-opacity: 1.00; stroke: none;" id="ezcGraphCircle_31"/><path d=" M 330.9815,78.4696 L 350.6066,48.0000" style="fill: none; stroke: #000000; stroke-width: 1; stroke-opacity: 1.00; stroke-linecap: round; stroke-linejoin: round;" id="ezcGraphLine_33"/><ellipse cx="330.9815" cy="78.4696" rx="3.0000" ry="3.0000" style="fill: #000000; fill-opacity: 1.00; stroke: none;" id="ezcGraphCircle_34"/><ellipse cx="350.6066" cy="48.0000" rx="3.0000" ry="3.0000" style="fill: #000000; fill-opacity: 1.00; stroke: none;" id="ezcGraphCircle_35"/><path d=" M 364.7295,153.4544 L 403.1995,161.0000" style="fill: none; stroke: #000000; stroke-width: 1; stroke-opacity: 1.00; stroke-linecap: round; stroke-linejoin: round;" id="ezcGraphLine_37"/><ellipse cx="364.7295" cy="153.4544" rx="3.0000" ry="3.0000" style="fill: #000000; fill-opacity: 1.00; stroke: none;" id="ezcGraphCircle_38"/><ellipse cx="403.1995" cy="161.0000" rx="3.0000" ry="3.0000" style="fill: #000000; fill-opacity: 1.00; stroke: none;" id="ezcGraphCircle_39"/><path d=" M 330.9815,196.5304 L 352.5591,226.0000" style="fill: none; stroke: #000000; stroke-width: 1; stroke-opacity: 1.00; stroke-linecap: round; stroke-linejoin: round;" id="ezcGraphLine_41"/><ellipse cx="330.9815" cy="196.5304" rx="3.0000" ry="3.0000" style="fill: #000000; fill-opacity: 1.00; stroke: none;" id="ezcGraphCircle_42"/><ellipse cx="352.5591" cy="226.0000" rx="3.0000" ry="3.0000" style="fill: #000000; fill-opacity: 1.00; stroke: none;" id="ezcGraphCircle_43"/><g id="ezcGraphTextBox_3"><path d=" M 194.6450,25.0000 L 194.6450,0.5000 L 305.8550,0.5000 L 305.8550,25.0000 L 194.6450,25.0000 z " style="fill: #ffffff; fill-opacity: 0.00; stroke: none;" id="ezcGraphPolygon_45"/><text id="ezcGraphTextBox_3_text" x="195.1450" text-length="109.7100px" y="20.5500" style="font-size: 23px; font-family: 'sans-serif'; fill: #2e3436; fill-opacity: 1.00; stroke: none;">My Report</text></g><g id="ezcGraphTextBox_6"><path d=" M 16.5000,42.0000 L 16.5000,26.5000 L 32.8400,26.5000 L 32.8400,42.0000 L 16.5000,42.0000 z " style="fill: #ffffff; fill-opacity: 0.00; stroke: none;" id="ezcGraphPolygon_46"/><text id="ezcGraphTextBox_6_text" x="17.0000" text-length="14.8400px" y="38.9000" style="font-size: 14px; font-family: 'sans-serif'; fill: #2e3436; fill-opacity: 1.00; stroke: none;">s1</text></g><g id="ezcGraphTextBox_8"><path d=" M 16.5000,60.0000 L 16.5000,44.5000 L 32.8400,44.5000 L 32.8400,60.0000 L 16.5000,60.0000 z " style="fill: #ffffff; fill-opacity: 0.00; stroke: none;" id="ezcGraphPolygon_47"/><text id="ezcGraphTextBox_8_text" x="17.0000" text-length="14.8400px" y="56.9000" style="font-size: 14px; font-family: 'sans-serif'; fill: #2e3436; fill-opacity: 1.00; stroke: none;">s2</text></g><g id="ezcGraphTextBox_10"><path d=" M 16.5000,78.0000 L 16.5000,62.5000 L 32.8400,62.5000 L 32.8400,78.0000 L 16.5000,78.0000 z " style="fill: #ffffff; fill-opacity: 0.00; stroke: none;" id="ezcGraphPolygon_48"/><text id="ezcGraphTextBox_10_text" x="17.0000" text-length="14.8400px" y="74.9000" style="font-size: 14px; font-family: 'sans-serif'; fill: #2e3436; fill-opacity: 1.00; stroke: none;">s3</text></g><g id="ezcGraphTextBox_12"><path d=" M 16.5000,96.0000 L 16.5000,80.5000 L 32.8400,80.5000 L 32.8400,96.0000 L 16.5000,96.0000 z " style="fill: #ffffff; fill-opacity: 0.00; stroke: none;" id="ezcGraphPolygon_49"/><text id="ezcGraphTextBox_12_text" x="17.0000" text-length="14.8400px" y="92.9000" style="font-size: 14px; font-family: 'sans-serif'; fill: #2e3436; fill-opacity: 1.00; stroke: none;">s4</text></g><g id="ezcGraphTextBox_14"><path d=" M 16.5000,114.0000 L 16.5000,98.5000 L 32.8400,98.5000 L 32.8400,114.0000 L 16.5000,114.0000 z " style="fill: #ffffff; fill-opacity: 0.00; stroke: none;" id="ezcGraphPolygon_50"/><text id="ezcGraphTextBox_14_text" x="17.0000" text-length="14.8400px" y="110.9000" style="font-size: 14px; font-family: 'sans-serif'; fill: #2e3436; fill-opacity: 1.00; stroke: none;">s5</text></g><g id="ezcGraphTextBox_28"><path d=" M 102.1593,132.2500 L 102.1593,118.2500 L 189.7843,118.2500 L 189.7843,132.2500 L 102.1593,132.2500 z " style="fill: #ffffff; fill-opacity: 0.00; stroke: none;" id="ezcGraphPolygon_51"/><text id="ezcGraphTextBox_28_text" x="102.6593" text-length="86.1250px" y="129.3750" style="font-size: 12px; font-family: 'sans-serif'; fill: #2e3436; fill-opacity: 1.00; stroke: none;">s4: 7 (26.9%)</text></g><g id="ezcGraphTextBox_32"><path d=" M 154.8159,233.2500 L 154.8159,219.2500 L 242.4409,219.2500 L 242.4409,233.2500 L 154.8159,233.2500 z " style="fill: #ffffff; fill-opacity: 0.00; stroke: none;" id="ezcGraphPolygon_52"/><text id="ezcGraphTextBox_32_text" x="155.3159" text-length="86.1250px" y="230.3750" style="font-size: 12px; font-family: 'sans-serif'; fill: #2e3436; fill-opacity: 1.00; stroke: none;">s3: 3 (11.5%)</text></g><g id="ezcGraphTextBox_36"><path d=" M 356.1066,55.2500 L 356.1066,41.2500 L 443.7316,41.2500 L 443.7316,55.2500 L 356.1066,55.2500 z " style="fill: #ffffff; fill-opacity: 0.00; stroke: none;" id="ezcGraphPolygon_53"/><text id="ezcGraphTextBox_36_text" x="356.6066" text-length="86.1250px" y="52.3750" style="font-size: 12px; font-family: 'sans-serif'; fill: #2e3436; fill-opacity: 1.00; stroke: none;">s5: 9 (34.6%)</text></g><g id="ezcGraphTextBox_40"><path d=" M 408.6995,168.2500 L 408.6995,154.2500 L 489.6995,154.2500 L 489.6995,168.2500 L 408.6995,168.2500 z " style="fill: #ffffff; fill-opacity: 0.00; stroke: none;" id="ezcGraphPolygon_54"/><text id="ezcGraphTextBox_40_text" x="409.1995" text-length="79.5000px" y="165.3750" style="font-size: 12px; font-family: 'sans-serif'; fill: #2e3436; fill-opacity: 1.00; stroke: none;">s1: 2 (7.7%)</text></g><g id="ezcGraphTextBox_44"><path d=" M 358.0591,233.2500 L 358.0591,219.2500 L 445.6841,219.2500 L 445.6841,233.2500 L 358.0591,233.2500 z " style="fill: #ffffff; fill-opacity: 0.00; stroke: none;" id="ezcGraphPolygon_55"/><text id="ezcGraphTextBox_44_text" x="358.5591" text-length="86.1250px" y="230.3750" style="font-size: 12px; font-family: 'sans-serif'; fill: #2e3436; fill-opacity: 1.00; stroke: none;">s2: 5 (19.2%)</text></g></g></svg>
